<svg id="visual" viewBox="0 0 960 540" width="960" height="540" xmlns="http://www.w3.org/2000/svg" xmlns:xlink="http://www.w3.org/1999/xlink" version="1.1"><path d="M0 50L87 50L87 50L175 50L175 44L262 44L262 66L349 66L349 87L436 87L436 82L524 82L524 44L611 44L611 71L698 71L698 93L785 93L785 55L873 55L873 82L960 82L960 50L960 0L960 0L873 0L873 0L785 0L785 0L698 0L698 0L611 0L611 0L524 0L524 0L436 0L436 0L349 0L349 0L262 0L262 0L175 0L175 0L87 0L87 0L0 0Z" fill="#fa7268"></path><path d="M0 93L87 93L87 152L175 152L175 109L262 109L262 114L349 114L349 141L436 141L436 179L524 179L524 147L611 147L611 109L698 109L698 141L785 141L785 136L873 136L873 136L960 136L960 98L960 48L960 80L873 80L873 53L785 53L785 91L698 91L698 69L611 69L611 42L524 42L524 80L436 80L436 85L349 85L349 64L262 64L262 42L175 42L175 48L87 48L87 48L0 48Z" fill="#ea5e66"></path><path d="M0 347L87 347L87 368L175 368L175 190L262 190L262 255L349 255L349 222L436 222L436 260L524 260L524 282L611 282L611 341L698 341L698 298L785 298L785 222L873 222L873 330L960 330L960 201L960 96L960 134L873 134L873 134L785 134L785 139L698 139L698 107L611 107L611 145L524 145L524 177L436 177L436 139L349 139L349 112L262 112L262 107L175 107L175 150L87 150L87 91L0 91Z" fill="#d84a64"></path><path d="M0 487L87 487L87 492L175 492L175 401L262 401L262 455L349 455L349 438L436 438L436 428L524 428L524 422L611 422L611 476L698 476L698 492L785 492L785 417L873 417L873 422L960 422L960 384L960 199L960 328L873 328L873 220L785 220L785 296L698 296L698 339L611 339L611 280L524 280L524 258L436 258L436 220L349 220L349 253L262 253L262 188L175 188L175 366L87 366L87 345L0 345Z" fill="#c53762"></path><path d="M0 541L87 541L87 541L175 541L175 541L262 541L262 541L349 541L349 541L436 541L436 541L524 541L524 541L611 541L611 541L698 541L698 541L785 541L785 541L873 541L873 541L960 541L960 541L960 382L960 420L873 420L873 415L785 415L785 490L698 490L698 474L611 474L611 420L524 420L524 426L436 426L436 436L349 436L349 453L262 453L262 399L175 399L175 490L87 490L87 485L0 485Z" fill="#b0235f"></path></svg>