<svg id="visual" viewBox="0 0 900 675" width="900" height="675" xmlns="http://www.w3.org/2000/svg" xmlns:xlink="http://www.w3.org/1999/xlink" version="1.1"><rect x="0" y="0" width="900" height="675" fill="#202731"></rect><path d="M0 296L56 296L56 166L113 166L113 423L169 423L169 498L225 498L225 331L281 331L281 106L338 106L338 188L394 188L394 337L450 337L450 355L506 355L506 107L563 107L563 278L619 278L619 245L675 245L675 524L731 524L731 367L788 367L788 393L844 393L844 437L900 437L900 423L900 676L900 676L844 676L844 676L788 676L788 676L731 676L731 676L675 676L675 676L619 676L619 676L563 676L563 676L506 676L506 676L450 676L450 676L394 676L394 676L338 676L338 676L281 676L281 676L225 676L225 676L169 676L169 676L113 676L113 676L56 676L56 676L0 676Z" fill="#FA7268"></path></svg>