<svg xmlns="http://www.w3.org/2000/svg" version="1.1" xmlns:xlink="http://www.w3.org/1999/xlink" xmlns:svgjs="http://svgjs.com/svgjs" width="1440" height="560" preserveAspectRatio="none" viewBox="0 0 1440 560">
    <g mask="url(&quot;#SvgjsMask1533&quot;)" fill="none">
        <rect width="1440" height="560" x="0" y="0" fill="rgba(68, 133, 201, 1)"></rect>
        <use xlink:href="#SvgjsG1537" transform="translate(0, 0)" fill="rgba(6, 39, 72, 1)"></use>
        <use xlink:href="#SvgjsG1537" transform="translate(0, 510)" fill="rgba(6, 39, 72, 1)"></use>
        <use xlink:href="#SvgjsG1537" transform="translate(510, 0)" fill="rgba(6, 39, 72, 1)"></use>
        <use xlink:href="#SvgjsG1537" transform="translate(510, 510)" fill="rgba(6, 39, 72, 1)"></use>
        <use xlink:href="#SvgjsG1537" transform="translate(1020, 0)" fill="rgba(6, 39, 72, 1)"></use>
        <use xlink:href="#SvgjsG1537" transform="translate(1020, 510)" fill="rgba(6, 39, 72, 1)"></use>
    </g>
    <defs>
        <mask id="SvgjsMask1533">
            <rect width="1440" height="560" fill="#ffffff"></rect>
        </mask>
        <g id="SvgjsG1535">
            <path d="M3.474 10.969C3.474 7.665 8.077 0.361 8.077 0.361s4.602 7.305 4.602 10.608c0 2.247-1.506 4.771-4.602 4.771-3.095 0-4.603-2.524-4.603-4.771z" fill-rule="evenodd"></path>
        </g>
        <g id="SvgjsG1536">
            <path d="M15.233 9.431c0.295 0 0.569-0.239 0.61-0.532 0 0 0.056-0.411 0.056-0.899s-0.056-0.899-0.056-0.899c-0.041-0.292-0.315-0.531-0.61-0.53h-1.524c-0.295 0-0.602-0.188-0.681-0.418s-0.188-0.967 0.021-1.176l1.078-1.077c0.209-0.209 0.225-0.565 0.036-0.792l-1.268-1.268c-0.227-0.189-0.583-0.173-0.792 0.036l-1.078 1.077c-0.208 0.209-0.556 0.293-0.772 0.187s-0.822-0.552-0.821-0.847V0.767c0-0.295-0.239-0.569-0.531-0.61 0 0-0.411-0.057-0.9-0.056s-0.899 0.057-0.899 0.056c-0.293 0.04-0.532 0.315-0.532 0.61v1.524c0 0.295-0.188 0.601-0.418 0.681s-0.967 0.188-1.176-0.021l-1.078-1.078C3.689 1.665 3.333 1.649 3.107 1.837l-1.268 1.268c-0.189 0.227-0.173 0.583 0.036 0.792l1.077 1.078c0.209 0.209 0.293 0.556 0.187 0.772s-0.552 0.822-0.847 0.822H0.767c-0.295 0-0.569 0.239-0.61 0.531 0 0-0.057 0.411-0.056 0.899s0.057 0.899 0.056 0.9c0.04 0.293 0.315 0.532 0.61 0.532h1.525c0.295 0 0.601 0.188 0.681 0.417 0.079 0.23 0.188 0.967-0.02 1.176l-1.078 1.077C1.667 12.311 1.651 12.667 1.84 12.893l1.267 1.268c0.227 0.189 0.583 0.173 0.792-0.036l1.077-1.077c0.209-0.208 0.556-0.292 0.772-0.187s0.821 0.553 0.822 0.848v1.524c0 0.295 0.239 0.569 0.532 0.61 0 0 0.411 0.057 0.899 0.057s0.899-0.056 0.899-0.057c0.293-0.04 0.531-0.315 0.532-0.609v-1.524c0-0.295 0.188-0.602 0.418-0.681 0.23-0.079 0.967-0.188 1.176 0.021l1.077 1.077c0.209 0.209 0.565 0.225 0.792 0.036l1.268-1.267c0.189-0.227 0.173-0.583-0.036-0.792l-1.078-1.077c-0.209-0.209-0.293-0.557-0.186-0.773 0.106-0.216 0.552-0.822 0.847-0.822h1.525zM8 10.892c-1.597 0-2.891-1.294-2.891-2.892 0-1.596 1.295-2.891 2.891-2.891S10.892 6.404 10.892 8 9.597 10.892 8 10.892z"></path>
        </g>
        <g id="SvgjsG1534">
            <path d="M11.54 3.677l-1.527-1.201V0c-0.624 0.318-1.699 1.357-1.417 2.81 0.029 0.429 0.361 1.53 0.219 2.13-0.19 0.801-0.26 0.819-1.4 2.254L1.702 14.236c-0.383 0.438-0.342 1.11 0.092 1.498 0.434 0.388 1.093 0.346 1.478-0.093L10.421 6.764c0.451-0.567 1.28-1.068 1.998-1.264 1.234-0.379 2.145-1.535 2.145-2.908 0-1.106-0.631-2.152-1.46-2.592l-0.005 2.437-1.559 1.24z"></path>
        </g>
        <g id="SvgjsG1537">
            <use xlink:href="#SvgjsG1534" transform="translate(0, 0) scale(1.7)" fill="rgba(6, 39, 72, 1)"></use>
            <use xlink:href="#SvgjsG1534" transform="translate(0, 51) scale(1.7)" fill="rgba(6, 39, 72, 1)"></use>
            <use xlink:href="#SvgjsG1534" transform="translate(0, 102) scale(1.7)" fill="rgba(6, 39, 72, 1)"></use>
            <use xlink:href="#SvgjsG1534" transform="translate(0, 153) scale(1.7)" fill="rgba(6, 39, 72, 1)"></use>
            <use xlink:href="#SvgjsG1534" transform="translate(0, 204) scale(1.7)" fill="rgba(6, 39, 72, 1)"></use>
            <use xlink:href="#SvgjsG1535" transform="translate(0, 255) scale(1.7)" fill="rgba(6, 39, 72, 1)"></use>
            <use xlink:href="#SvgjsG1536" transform="translate(0, 306) scale(1.7)" fill="rgba(6, 39, 72, 1)"></use>
            <use xlink:href="#SvgjsG1536" transform="translate(0, 357) scale(1.7)" fill="rgba(6, 39, 72, 1)"></use>
            <use xlink:href="#SvgjsG1535" transform="translate(0, 408) scale(1.7)" fill="rgba(6, 39, 72, 1)"></use>
            <use xlink:href="#SvgjsG1535" transform="translate(0, 459) scale(1.7)" fill="rgba(6, 39, 72, 1)"></use>
            <use xlink:href="#SvgjsG1534" transform="translate(51, 0) scale(1.7)" fill="rgba(6, 39, 72, 1)"></use>
            <use xlink:href="#SvgjsG1536" transform="translate(51, 51) scale(1.7)" fill="rgba(6, 39, 72, 1)"></use>
            <use xlink:href="#SvgjsG1534" transform="translate(51, 102) scale(1.7)" fill="rgba(6, 39, 72, 1)"></use>
            <use xlink:href="#SvgjsG1534" transform="translate(51, 153) scale(1.7)" fill="rgba(6, 39, 72, 1)"></use>
            <use xlink:href="#SvgjsG1536" transform="translate(51, 204) scale(1.7)" fill="rgba(6, 39, 72, 1)"></use>
            <use xlink:href="#SvgjsG1536" transform="translate(51, 255) scale(1.7)" fill="rgba(6, 39, 72, 1)"></use>
            <use xlink:href="#SvgjsG1535" transform="translate(51, 306) scale(1.7)" fill="rgba(6, 39, 72, 1)"></use>
            <use xlink:href="#SvgjsG1536" transform="translate(51, 357) scale(1.7)" fill="rgba(6, 39, 72, 1)"></use>
            <use xlink:href="#SvgjsG1536" transform="translate(51, 408) scale(1.7)" fill="rgba(6, 39, 72, 1)"></use>
            <use xlink:href="#SvgjsG1536" transform="translate(51, 459) scale(1.7)" fill="rgba(6, 39, 72, 1)"></use>
            <use xlink:href="#SvgjsG1536" transform="translate(102, 0) scale(1.7)" fill="rgba(6, 39, 72, 1)"></use>
            <use xlink:href="#SvgjsG1535" transform="translate(102, 51) scale(1.7)" fill="rgba(6, 39, 72, 1)"></use>
            <use xlink:href="#SvgjsG1536" transform="translate(102, 102) scale(1.7)" fill="rgba(6, 39, 72, 1)"></use>
            <use xlink:href="#SvgjsG1536" transform="translate(102, 153) scale(1.7)" fill="rgba(6, 39, 72, 1)"></use>
            <use xlink:href="#SvgjsG1534" transform="translate(102, 204) scale(1.7)" fill="rgba(6, 39, 72, 1)"></use>
            <use xlink:href="#SvgjsG1535" transform="translate(102, 255) scale(1.7)" fill="rgba(6, 39, 72, 1)"></use>
            <use xlink:href="#SvgjsG1535" transform="translate(102, 306) scale(1.7)" fill="rgba(6, 39, 72, 1)"></use>
            <use xlink:href="#SvgjsG1534" transform="translate(102, 357) scale(1.7)" fill="rgba(6, 39, 72, 1)"></use>
            <use xlink:href="#SvgjsG1535" transform="translate(102, 408) scale(1.7)" fill="rgba(6, 39, 72, 1)"></use>
            <use xlink:href="#SvgjsG1535" transform="translate(102, 459) scale(1.7)" fill="rgba(6, 39, 72, 1)"></use>
            <use xlink:href="#SvgjsG1535" transform="translate(153, 0) scale(1.7)" fill="rgba(6, 39, 72, 1)"></use>
            <use xlink:href="#SvgjsG1534" transform="translate(153, 51) scale(1.7)" fill="rgba(6, 39, 72, 1)"></use>
            <use xlink:href="#SvgjsG1536" transform="translate(153, 102) scale(1.7)" fill="rgba(6, 39, 72, 1)"></use>
            <use xlink:href="#SvgjsG1535" transform="translate(153, 153) scale(1.7)" fill="rgba(6, 39, 72, 1)"></use>
            <use xlink:href="#SvgjsG1534" transform="translate(153, 204) scale(1.7)" fill="rgba(6, 39, 72, 1)"></use>
            <use xlink:href="#SvgjsG1535" transform="translate(153, 255) scale(1.7)" fill="rgba(6, 39, 72, 1)"></use>
            <use xlink:href="#SvgjsG1536" transform="translate(153, 306) scale(1.7)" fill="rgba(6, 39, 72, 1)"></use>
            <use xlink:href="#SvgjsG1534" transform="translate(153, 357) scale(1.7)" fill="rgba(6, 39, 72, 1)"></use>
            <use xlink:href="#SvgjsG1536" transform="translate(153, 408) scale(1.7)" fill="rgba(6, 39, 72, 1)"></use>
            <use xlink:href="#SvgjsG1534" transform="translate(153, 459) scale(1.7)" fill="rgba(6, 39, 72, 1)"></use>
            <use xlink:href="#SvgjsG1535" transform="translate(204, 0) scale(1.7)" fill="rgba(6, 39, 72, 1)"></use>
            <use xlink:href="#SvgjsG1536" transform="translate(204, 51) scale(1.7)" fill="rgba(6, 39, 72, 1)"></use>
            <use xlink:href="#SvgjsG1534" transform="translate(204, 102) scale(1.7)" fill="rgba(6, 39, 72, 1)"></use>
            <use xlink:href="#SvgjsG1536" transform="translate(204, 153) scale(1.7)" fill="rgba(6, 39, 72, 1)"></use>
            <use xlink:href="#SvgjsG1535" transform="translate(204, 204) scale(1.7)" fill="rgba(6, 39, 72, 1)"></use>
            <use xlink:href="#SvgjsG1536" transform="translate(204, 255) scale(1.7)" fill="rgba(6, 39, 72, 1)"></use>
            <use xlink:href="#SvgjsG1536" transform="translate(204, 306) scale(1.7)" fill="rgba(6, 39, 72, 1)"></use>
            <use xlink:href="#SvgjsG1536" transform="translate(204, 357) scale(1.7)" fill="rgba(6, 39, 72, 1)"></use>
            <use xlink:href="#SvgjsG1535" transform="translate(204, 408) scale(1.7)" fill="rgba(6, 39, 72, 1)"></use>
            <use xlink:href="#SvgjsG1534" transform="translate(204, 459) scale(1.7)" fill="rgba(6, 39, 72, 1)"></use>
            <use xlink:href="#SvgjsG1536" transform="translate(255, 0) scale(1.7)" fill="rgba(6, 39, 72, 1)"></use>
            <use xlink:href="#SvgjsG1535" transform="translate(255, 51) scale(1.7)" fill="rgba(6, 39, 72, 1)"></use>
            <use xlink:href="#SvgjsG1534" transform="translate(255, 102) scale(1.7)" fill="rgba(6, 39, 72, 1)"></use>
            <use xlink:href="#SvgjsG1535" transform="translate(255, 153) scale(1.7)" fill="rgba(6, 39, 72, 1)"></use>
            <use xlink:href="#SvgjsG1535" transform="translate(255, 204) scale(1.7)" fill="rgba(6, 39, 72, 1)"></use>
            <use xlink:href="#SvgjsG1536" transform="translate(255, 255) scale(1.7)" fill="rgba(6, 39, 72, 1)"></use>
            <use xlink:href="#SvgjsG1534" transform="translate(255, 306) scale(1.7)" fill="rgba(6, 39, 72, 1)"></use>
            <use xlink:href="#SvgjsG1535" transform="translate(255, 357) scale(1.7)" fill="rgba(6, 39, 72, 1)"></use>
            <use xlink:href="#SvgjsG1534" transform="translate(255, 408) scale(1.7)" fill="rgba(6, 39, 72, 1)"></use>
            <use xlink:href="#SvgjsG1534" transform="translate(255, 459) scale(1.7)" fill="rgba(6, 39, 72, 1)"></use>
            <use xlink:href="#SvgjsG1534" transform="translate(306, 0) scale(1.7)" fill="rgba(6, 39, 72, 1)"></use>
            <use xlink:href="#SvgjsG1534" transform="translate(306, 51) scale(1.7)" fill="rgba(6, 39, 72, 1)"></use>
            <use xlink:href="#SvgjsG1536" transform="translate(306, 102) scale(1.7)" fill="rgba(6, 39, 72, 1)"></use>
            <use xlink:href="#SvgjsG1534" transform="translate(306, 153) scale(1.7)" fill="rgba(6, 39, 72, 1)"></use>
            <use xlink:href="#SvgjsG1535" transform="translate(306, 204) scale(1.7)" fill="rgba(6, 39, 72, 1)"></use>
            <use xlink:href="#SvgjsG1534" transform="translate(306, 255) scale(1.7)" fill="rgba(6, 39, 72, 1)"></use>
            <use xlink:href="#SvgjsG1534" transform="translate(306, 306) scale(1.7)" fill="rgba(6, 39, 72, 1)"></use>
            <use xlink:href="#SvgjsG1536" transform="translate(306, 357) scale(1.7)" fill="rgba(6, 39, 72, 1)"></use>
            <use xlink:href="#SvgjsG1534" transform="translate(306, 408) scale(1.7)" fill="rgba(6, 39, 72, 1)"></use>
            <use xlink:href="#SvgjsG1536" transform="translate(306, 459) scale(1.7)" fill="rgba(6, 39, 72, 1)"></use>
            <use xlink:href="#SvgjsG1536" transform="translate(357, 0) scale(1.7)" fill="rgba(6, 39, 72, 1)"></use>
            <use xlink:href="#SvgjsG1535" transform="translate(357, 51) scale(1.7)" fill="rgba(6, 39, 72, 1)"></use>
            <use xlink:href="#SvgjsG1536" transform="translate(357, 102) scale(1.7)" fill="rgba(6, 39, 72, 1)"></use>
            <use xlink:href="#SvgjsG1535" transform="translate(357, 153) scale(1.7)" fill="rgba(6, 39, 72, 1)"></use>
            <use xlink:href="#SvgjsG1535" transform="translate(357, 204) scale(1.7)" fill="rgba(6, 39, 72, 1)"></use>
            <use xlink:href="#SvgjsG1536" transform="translate(357, 255) scale(1.7)" fill="rgba(6, 39, 72, 1)"></use>
            <use xlink:href="#SvgjsG1535" transform="translate(357, 306) scale(1.7)" fill="rgba(6, 39, 72, 1)"></use>
            <use xlink:href="#SvgjsG1534" transform="translate(357, 357) scale(1.7)" fill="rgba(6, 39, 72, 1)"></use>
            <use xlink:href="#SvgjsG1534" transform="translate(357, 408) scale(1.7)" fill="rgba(6, 39, 72, 1)"></use>
            <use xlink:href="#SvgjsG1535" transform="translate(357, 459) scale(1.7)" fill="rgba(6, 39, 72, 1)"></use>
            <use xlink:href="#SvgjsG1534" transform="translate(408, 0) scale(1.7)" fill="rgba(6, 39, 72, 1)"></use>
            <use xlink:href="#SvgjsG1536" transform="translate(408, 51) scale(1.7)" fill="rgba(6, 39, 72, 1)"></use>
            <use xlink:href="#SvgjsG1536" transform="translate(408, 102) scale(1.7)" fill="rgba(6, 39, 72, 1)"></use>
            <use xlink:href="#SvgjsG1535" transform="translate(408, 153) scale(1.7)" fill="rgba(6, 39, 72, 1)"></use>
            <use xlink:href="#SvgjsG1535" transform="translate(408, 204) scale(1.7)" fill="rgba(6, 39, 72, 1)"></use>
            <use xlink:href="#SvgjsG1536" transform="translate(408, 255) scale(1.7)" fill="rgba(6, 39, 72, 1)"></use>
            <use xlink:href="#SvgjsG1536" transform="translate(408, 306) scale(1.7)" fill="rgba(6, 39, 72, 1)"></use>
            <use xlink:href="#SvgjsG1534" transform="translate(408, 357) scale(1.7)" fill="rgba(6, 39, 72, 1)"></use>
            <use xlink:href="#SvgjsG1536" transform="translate(408, 408) scale(1.7)" fill="rgba(6, 39, 72, 1)"></use>
            <use xlink:href="#SvgjsG1534" transform="translate(408, 459) scale(1.7)" fill="rgba(6, 39, 72, 1)"></use>
            <use xlink:href="#SvgjsG1535" transform="translate(459, 0) scale(1.7)" fill="rgba(6, 39, 72, 1)"></use>
            <use xlink:href="#SvgjsG1534" transform="translate(459, 51) scale(1.7)" fill="rgba(6, 39, 72, 1)"></use>
            <use xlink:href="#SvgjsG1535" transform="translate(459, 102) scale(1.7)" fill="rgba(6, 39, 72, 1)"></use>
            <use xlink:href="#SvgjsG1536" transform="translate(459, 153) scale(1.7)" fill="rgba(6, 39, 72, 1)"></use>
            <use xlink:href="#SvgjsG1534" transform="translate(459, 204) scale(1.7)" fill="rgba(6, 39, 72, 1)"></use>
            <use xlink:href="#SvgjsG1536" transform="translate(459, 255) scale(1.7)" fill="rgba(6, 39, 72, 1)"></use>
            <use xlink:href="#SvgjsG1534" transform="translate(459, 306) scale(1.7)" fill="rgba(6, 39, 72, 1)"></use>
            <use xlink:href="#SvgjsG1536" transform="translate(459, 357) scale(1.7)" fill="rgba(6, 39, 72, 1)"></use>
            <use xlink:href="#SvgjsG1536" transform="translate(459, 408) scale(1.7)" fill="rgba(6, 39, 72, 1)"></use>
            <use xlink:href="#SvgjsG1536" transform="translate(459, 459) scale(1.7)" fill="rgba(6, 39, 72, 1)"></use>
        </g>
    </defs>
</svg>