<svg id="visual" viewBox="0 0 960 300" width="960" height="300" xmlns="http://www.w3.org/2000/svg" xmlns:xlink="http://www.w3.org/1999/xlink" version="1.1"><rect x="0" y="0" width="960" height="300" fill="#0a1e30"></rect><defs><linearGradient id="grad1_0" x1="68.8%" y1="0%" x2="100%" y2="100%"><stop offset="-14.000000000000007%" stop-color="#ff6f27" stop-opacity="1"></stop><stop offset="114.00000000000001%" stop-color="#ff6f27" stop-opacity="1"></stop></linearGradient></defs><defs><linearGradient id="grad1_1" x1="68.8%" y1="0%" x2="100%" y2="100%"><stop offset="-14.000000000000007%" stop-color="#ff6f27" stop-opacity="1"></stop><stop offset="114.00000000000001%" stop-color="#d93d60" stop-opacity="1"></stop></linearGradient></defs><defs><linearGradient id="grad1_2" x1="68.8%" y1="0%" x2="100%" y2="100%"><stop offset="-14.000000000000007%" stop-color="#8e3675" stop-opacity="1"></stop><stop offset="114.00000000000001%" stop-color="#d93d60" stop-opacity="1"></stop></linearGradient></defs><defs><linearGradient id="grad1_3" x1="68.8%" y1="0%" x2="100%" y2="100%"><stop offset="-14.000000000000007%" stop-color="#8e3675" stop-opacity="1"></stop><stop offset="114.00000000000001%" stop-color="#3c3260" stop-opacity="1"></stop></linearGradient></defs><defs><linearGradient id="grad1_4" x1="68.8%" y1="0%" x2="100%" y2="100%"><stop offset="-14.000000000000007%" stop-color="#0a1e30" stop-opacity="1"></stop><stop offset="114.00000000000001%" stop-color="#3c3260" stop-opacity="1"></stop></linearGradient></defs><defs><linearGradient id="grad2_0" x1="0%" y1="0%" x2="31.3%" y2="100%"><stop offset="-14.000000000000007%" stop-color="#ff6f27" stop-opacity="1"></stop><stop offset="114.00000000000001%" stop-color="#ff6f27" stop-opacity="1"></stop></linearGradient></defs><defs><linearGradient id="grad2_1" x1="0%" y1="0%" x2="31.3%" y2="100%"><stop offset="-14.000000000000007%" stop-color="#d93d60" stop-opacity="1"></stop><stop offset="114.00000000000001%" stop-color="#ff6f27" stop-opacity="1"></stop></linearGradient></defs><defs><linearGradient id="grad2_2" x1="0%" y1="0%" x2="31.3%" y2="100%"><stop offset="-14.000000000000007%" stop-color="#d93d60" stop-opacity="1"></stop><stop offset="114.00000000000001%" stop-color="#8e3675" stop-opacity="1"></stop></linearGradient></defs><defs><linearGradient id="grad2_3" x1="0%" y1="0%" x2="31.3%" y2="100%"><stop offset="-14.000000000000007%" stop-color="#3c3260" stop-opacity="1"></stop><stop offset="114.00000000000001%" stop-color="#8e3675" stop-opacity="1"></stop></linearGradient></defs><defs><linearGradient id="grad2_4" x1="0%" y1="0%" x2="31.3%" y2="100%"><stop offset="-14.000000000000007%" stop-color="#3c3260" stop-opacity="1"></stop><stop offset="114.00000000000001%" stop-color="#0a1e30" stop-opacity="1"></stop></linearGradient></defs><g transform="translate(960, 0)"><path d="M0 240C-26.5 238.4 -53.1 236.7 -72 221.6C-90.9 206.5 -102.2 177.8 -115.8 159.4C-129.4 140.9 -145.2 132.6 -166.7 121.1C-188.1 109.6 -215.1 94.9 -228.3 74.2C-241.4 53.5 -240.7 26.7 -240 0L0 0Z" fill="#1c294a"></path><path d="M0 192C-21.2 190.7 -42.5 189.4 -57.6 177.3C-72.7 165.2 -81.8 142.3 -92.6 127.5C-103.5 112.7 -116.2 106.1 -133.3 96.9C-150.5 87.7 -172.1 75.9 -182.6 59.3C-193.1 42.8 -192.6 21.4 -192 0L0 0Z" fill="#64366f"></path><path d="M0 144C-15.9 143 -31.8 142 -43.2 133C-54.6 123.9 -61.3 106.7 -69.5 95.6C-77.6 84.5 -87.1 79.6 -100 72.7C-112.9 65.7 -129.1 56.9 -137 44.5C-144.8 32.1 -144.4 16 -144 0L0 0Z" fill="#b7366f"></path><path d="M0 96C-10.6 95.3 -21.2 94.7 -28.8 88.6C-36.4 82.6 -40.9 71.1 -46.3 63.8C-51.7 56.4 -58.1 53 -66.7 48.4C-75.2 43.8 -86 38 -91.3 29.7C-96.6 21.4 -96.3 10.7 -96 0L0 0Z" fill="#f25149"></path><path d="M0 48C-5.3 47.7 -10.6 47.3 -14.4 44.3C-18.2 41.3 -20.4 35.6 -23.2 31.9C-25.9 28.2 -29 26.5 -33.3 24.2C-37.6 21.9 -43 19 -45.7 14.8C-48.3 10.7 -48.1 5.3 -48 0L0 0Z" fill="#ff6f27"></path></g><g transform="translate(0, 300)"><path d="M0 -240C22.9 -230.3 45.7 -220.6 69.5 -214C93.3 -207.4 118 -203.8 139.9 -192.5C161.8 -181.3 180.9 -162.4 194.2 -141.1C207.4 -119.7 214.9 -95.9 221.6 -72C228.3 -48.1 234.1 -24 240 0L0 0Z" fill="#1c294a"></path><path d="M0 -192C18.3 -184.2 36.6 -176.5 55.6 -171.2C74.6 -165.9 94.4 -163 111.9 -154C129.4 -145 144.7 -129.9 155.3 -112.9C166 -95.8 171.9 -76.7 177.3 -57.6C182.6 -38.5 187.3 -19.2 192 0L0 0Z" fill="#64366f"></path><path d="M0 -144C13.7 -138.2 27.4 -132.4 41.7 -128.4C56 -124.4 70.8 -122.3 83.9 -115.5C97.1 -108.8 108.5 -97.4 116.5 -84.6C124.5 -71.8 129 -57.6 133 -43.2C137 -28.8 140.5 -14.4 144 0L0 0Z" fill="#b7366f"></path><path d="M0 -96C9.1 -92.1 18.3 -88.2 27.8 -85.6C37.3 -82.9 47.2 -81.5 56 -77C64.7 -72.5 72.4 -65 77.7 -56.4C83 -47.9 86 -38.4 88.6 -28.8C91.3 -19.2 93.7 -9.6 96 0L0 0Z" fill="#f25149"></path><path d="M0 -48C4.6 -46.1 9.1 -44.1 13.9 -42.8C18.7 -41.5 23.6 -40.8 28 -38.5C32.4 -36.3 36.2 -32.5 38.8 -28.2C41.5 -23.9 43 -19.2 44.3 -14.4C45.7 -9.6 46.8 -4.8 48 0L0 0Z" fill="#ff6f27"></path></g></svg>