<svg id="visual" viewBox="0 0 960 540" width="960" height="540" xmlns="http://www.w3.org/2000/svg" xmlns:xlink="http://www.w3.org/1999/xlink" version="1.1"><rect x="0" y="0" width="960" height="540" fill="#001220"></rect><path d="M0 316L22.8 318.7C45.7 321.3 91.3 326.7 137 338.3C182.7 350 228.3 368 274 370.5C319.7 373 365.3 360 411.2 351.2C457 342.3 503 337.7 548.8 343.5C594.7 349.3 640.3 365.7 686 370.7C731.7 375.7 777.3 369.3 823 370.5C868.7 371.7 914.3 380.3 937.2 384.7L960 389L960 541L937.2 541C914.3 541 868.7 541 823 541C777.3 541 731.7 541 686 541C640.3 541 594.7 541 548.8 541C503 541 457 541 411.2 541C365.3 541 319.7 541 274 541C228.3 541 182.7 541 137 541C91.3 541 45.7 541 22.8 541L0 541Z" fill="#c62368"></path><path d="M0 379L22.8 374.8C45.7 370.7 91.3 362.3 137 370.7C182.7 379 228.3 404 274 411.7C319.7 419.3 365.3 409.7 411.2 399.5C457 389.3 503 378.7 548.8 381.8C594.7 385 640.3 402 686 406.7C731.7 411.3 777.3 403.7 823 395.8C868.7 388 914.3 380 937.2 376L960 372L960 541L937.2 541C914.3 541 868.7 541 823 541C777.3 541 731.7 541 686 541C640.3 541 594.7 541 548.8 541C503 541 457 541 411.2 541C365.3 541 319.7 541 274 541C228.3 541 182.7 541 137 541C91.3 541 45.7 541 22.8 541L0 541Z" fill="#d53867"></path><path d="M0 414L22.8 412.7C45.7 411.3 91.3 408.7 137 407.7C182.7 406.7 228.3 407.3 274 408.5C319.7 409.7 365.3 411.3 411.2 414.2C457 417 503 421 548.8 428C594.7 435 640.3 445 686 441C731.7 437 777.3 419 823 409C868.7 399 914.3 397 937.2 396L960 395L960 541L937.2 541C914.3 541 868.7 541 823 541C777.3 541 731.7 541 686 541C640.3 541 594.7 541 548.8 541C503 541 457 541 411.2 541C365.3 541 319.7 541 274 541C228.3 541 182.7 541 137 541C91.3 541 45.7 541 22.8 541L0 541Z" fill="#e34c67"></path><path d="M0 436L22.8 435.8C45.7 435.7 91.3 435.3 137 438.3C182.7 441.3 228.3 447.7 274 454.2C319.7 460.7 365.3 467.3 411.2 466.8C457 466.3 503 458.7 548.8 458C594.7 457.3 640.3 463.7 686 467.2C731.7 470.7 777.3 471.3 823 466.8C868.7 462.3 914.3 452.7 937.2 447.8L960 443L960 541L937.2 541C914.3 541 868.7 541 823 541C777.3 541 731.7 541 686 541C640.3 541 594.7 541 548.8 541C503 541 457 541 411.2 541C365.3 541 319.7 541 274 541C228.3 541 182.7 541 137 541C91.3 541 45.7 541 22.8 541L0 541Z" fill="#ef5f67"></path><path d="M0 501L22.8 496.8C45.7 492.7 91.3 484.3 137 486C182.7 487.7 228.3 499.3 274 502C319.7 504.7 365.3 498.3 411.2 493.5C457 488.7 503 485.3 548.8 482.2C594.7 479 640.3 476 686 481.2C731.7 486.3 777.3 499.7 823 500C868.7 500.3 914.3 487.7 937.2 481.3L960 475L960 541L937.2 541C914.3 541 868.7 541 823 541C777.3 541 731.7 541 686 541C640.3 541 594.7 541 548.8 541C503 541 457 541 411.2 541C365.3 541 319.7 541 274 541C228.3 541 182.7 541 137 541C91.3 541 45.7 541 22.8 541L0 541Z" fill="#fa7268"></path></svg>