<svg id="visual" viewBox="0 0 900 600" width="900" height="600" xmlns="http://www.w3.org/2000/svg" xmlns:xlink="http://www.w3.org/1999/xlink" version="1.1"><path d="M0 61L16.7 59C33.3 57 66.7 53 100 52C133.3 51 166.7 53 200 54C233.3 55 266.7 55 300 54C333.3 53 366.7 51 400 50C433.3 49 466.7 49 500 51C533.3 53 566.7 57 600 57C633.3 57 666.7 53 700 52C733.3 51 766.7 53 800 54C833.3 55 866.7 55 883.3 55L900 55L900 0L883.3 0C866.7 0 833.3 0 800 0C766.7 0 733.3 0 700 0C666.7 0 633.3 0 600 0C566.7 0 533.3 0 500 0C466.7 0 433.3 0 400 0C366.7 0 333.3 0 300 0C266.7 0 233.3 0 200 0C166.7 0 133.3 0 100 0C66.7 0 33.3 0 16.7 0L0 0Z" fill="#004cbb"></path><path d="M0 223L16.7 220C33.3 217 66.7 211 100 205C133.3 199 166.7 193 200 189C233.3 185 266.7 183 300 187C333.3 191 366.7 201 400 208C433.3 215 466.7 219 500 214C533.3 209 566.7 195 600 188C633.3 181 666.7 181 700 182C733.3 183 766.7 185 800 186C833.3 187 866.7 187 883.3 187L900 187L900 53L883.3 53C866.7 53 833.3 53 800 52C766.7 51 733.3 49 700 50C666.7 51 633.3 55 600 55C566.7 55 533.3 51 500 49C466.7 47 433.3 47 400 48C366.7 49 333.3 51 300 52C266.7 53 233.3 53 200 52C166.7 51 133.3 49 100 50C66.7 51 33.3 55 16.7 57L0 59Z" fill="#0055d1"></path><path d="M0 271L16.7 269C33.3 267 66.7 263 100 257C133.3 251 166.7 243 200 238C233.3 233 266.7 231 300 235C333.3 239 366.7 249 400 256C433.3 263 466.7 267 500 262C533.3 257 566.7 243 600 236C633.3 229 666.7 229 700 229C733.3 229 766.7 229 800 228C833.3 227 866.7 225 883.3 224L900 223L900 185L883.3 185C866.7 185 833.3 185 800 184C766.7 183 733.3 181 700 180C666.7 179 633.3 179 600 186C566.7 193 533.3 207 500 212C466.7 217 433.3 213 400 206C366.7 199 333.3 189 300 185C266.7 181 233.3 183 200 187C166.7 191 133.3 197 100 203C66.7 209 33.3 215 16.7 218L0 221Z" fill="#005de8"></path><path d="M0 349L16.7 351C33.3 353 66.7 357 100 352C133.3 347 166.7 333 200 328C233.3 323 266.7 327 300 332C333.3 337 366.7 343 400 348C433.3 353 466.7 357 500 353C533.3 349 566.7 337 600 327C633.3 317 666.7 309 700 308C733.3 307 766.7 313 800 312C833.3 311 866.7 303 883.3 299L900 295L900 221L883.3 222C866.7 223 833.3 225 800 226C766.7 227 733.3 227 700 227C666.7 227 633.3 227 600 234C566.7 241 533.3 255 500 260C466.7 265 433.3 261 400 254C366.7 247 333.3 237 300 233C266.7 229 233.3 231 200 236C166.7 241 133.3 249 100 255C66.7 261 33.3 265 16.7 267L0 269Z" fill="#0066ff"></path><path d="M0 427L16.7 429C33.3 431 66.7 435 100 427C133.3 419 166.7 399 200 391C233.3 383 266.7 387 300 392C333.3 397 366.7 403 400 410C433.3 417 466.7 425 500 422C533.3 419 566.7 405 600 397C633.3 389 666.7 387 700 385C733.3 383 766.7 381 800 380C833.3 379 866.7 379 883.3 379L900 379L900 293L883.3 297C866.7 301 833.3 309 800 310C766.7 311 733.3 305 700 306C666.7 307 633.3 315 600 325C566.7 335 533.3 347 500 351C466.7 355 433.3 351 400 346C366.7 341 333.3 335 300 330C266.7 325 233.3 321 200 326C166.7 331 133.3 345 100 350C66.7 355 33.3 351 16.7 349L0 347Z" fill="#2d77ff"></path><path d="M0 475L16.7 477C33.3 479 66.7 483 100 475C133.3 467 166.7 447 200 438C233.3 429 266.7 431 300 438C333.3 445 366.7 457 400 465C433.3 473 466.7 477 500 473C533.3 469 566.7 457 600 449C633.3 441 666.7 437 700 433C733.3 429 766.7 425 800 425C833.3 425 866.7 429 883.3 431L900 433L900 377L883.3 377C866.7 377 833.3 377 800 378C766.7 379 733.3 381 700 383C666.7 385 633.3 387 600 395C566.7 403 533.3 417 500 420C466.7 423 433.3 415 400 408C366.7 401 333.3 395 300 390C266.7 385 233.3 381 200 389C166.7 397 133.3 417 100 425C66.7 433 33.3 429 16.7 427L0 425Z" fill="#4988ff"></path><path d="M0 601L16.7 601C33.3 601 66.7 601 100 601C133.3 601 166.7 601 200 601C233.3 601 266.7 601 300 601C333.3 601 366.7 601 400 601C433.3 601 466.7 601 500 601C533.3 601 566.7 601 600 601C633.3 601 666.7 601 700 601C733.3 601 766.7 601 800 601C833.3 601 866.7 601 883.3 601L900 601L900 431L883.3 429C866.7 427 833.3 423 800 423C766.7 423 733.3 427 700 431C666.7 435 633.3 439 600 447C566.7 455 533.3 467 500 471C466.7 475 433.3 471 400 463C366.7 455 333.3 443 300 436C266.7 429 233.3 427 200 436C166.7 445 133.3 465 100 473C66.7 481 33.3 477 16.7 475L0 473Z" fill="#6198ff"></path></svg>