<svg id="visual" viewBox="0 0 960 300" width="960" height="300" xmlns="http://www.w3.org/2000/svg" xmlns:xlink="http://www.w3.org/1999/xlink" version="1.1"><path d="M0 16L11.5 18.5C23 21 46 26 68.8 25.5C91.7 25 114.3 19 137.2 19.5C160 20 183 27 205.8 30.5C228.7 34 251.3 34 274.2 30C297 26 320 18 342.8 15.5C365.7 13 388.3 16 411.2 20C434 24 457 29 480 30.5C503 32 526 30 548.8 28C571.7 26 594.3 24 617.2 21.5C640 19 663 16 685.8 16.5C708.7 17 731.3 21 754.2 20.5C777 20 800 15 822.8 12.5C845.7 10 868.3 10 891.2 12.5C914 15 937 20 948.5 22.5L960 25L960 0L948.5 0C937 0 914 0 891.2 0C868.3 0 845.7 0 822.8 0C800 0 777 0 754.2 0C731.3 0 708.7 0 685.8 0C663 0 640 0 617.2 0C594.3 0 571.7 0 548.8 0C526 0 503 0 480 0C457 0 434 0 411.2 0C388.3 0 365.7 0 342.8 0C320 0 297 0 274.2 0C251.3 0 228.7 0 205.8 0C183 0 160 0 137.2 0C114.3 0 91.7 0 68.8 0C46 0 23 0 11.5 0L0 0Z" fill="#4b03ba"></path><path d="M0 64L11.5 62.5C23 61 46 58 68.8 52C91.7 46 114.3 37 137.2 36C160 35 183 42 205.8 46C228.7 50 251.3 51 274.2 53.5C297 56 320 60 342.8 59C365.7 58 388.3 52 411.2 55C434 58 457 70 480 72.5C503 75 526 68 548.8 64C571.7 60 594.3 59 617.2 57C640 55 663 52 685.8 57.5C708.7 63 731.3 77 754.2 83C777 89 800 87 822.8 84.5C845.7 82 868.3 79 891.2 78C914 77 937 78 948.5 78.5L960 79L960 23L948.5 20.5C937 18 914 13 891.2 10.5C868.3 8 845.7 8 822.8 10.5C800 13 777 18 754.2 18.5C731.3 19 708.7 15 685.8 14.5C663 14 640 17 617.2 19.5C594.3 22 571.7 24 548.8 26C526 28 503 30 480 28.5C457 27 434 22 411.2 18C388.3 14 365.7 11 342.8 13.5C320 16 297 24 274.2 28C251.3 32 228.7 32 205.8 28.5C183 25 160 18 137.2 17.5C114.3 17 91.7 23 68.8 23.5C46 24 23 19 11.5 16.5L0 14Z" fill="#5302cd"></path><path d="M0 115L11.5 111C23 107 46 99 68.8 93C91.7 87 114.3 83 137.2 79C160 75 183 71 205.8 74C228.7 77 251.3 87 274.2 89.5C297 92 320 87 342.8 85C365.7 83 388.3 84 411.2 92C434 100 457 115 480 118.5C503 122 526 114 548.8 110.5C571.7 107 594.3 108 617.2 100C640 92 663 75 685.8 74C708.7 73 731.3 88 754.2 94.5C777 101 800 99 822.8 96.5C845.7 94 868.3 91 891.2 93.5C914 96 937 104 948.5 108L960 112L960 77L948.5 76.5C937 76 914 75 891.2 76C868.3 77 845.7 80 822.8 82.5C800 85 777 87 754.2 81C731.3 75 708.7 61 685.8 55.5C663 50 640 53 617.2 55C594.3 57 571.7 58 548.8 62C526 66 503 73 480 70.5C457 68 434 56 411.2 53C388.3 50 365.7 56 342.8 57C320 58 297 54 274.2 51.5C251.3 49 228.7 48 205.8 44C183 40 160 33 137.2 34C114.3 35 91.7 44 68.8 50C46 56 23 59 11.5 60.5L0 62Z" fill="#5a02e1"></path><path d="M0 196L11.5 195C23 194 46 192 68.8 184C91.7 176 114.3 162 137.2 148.5C160 135 183 122 205.8 124.5C228.7 127 251.3 145 274.2 157.5C297 170 320 177 342.8 179C365.7 181 388.3 178 411.2 175.5C434 173 457 171 480 171.5C503 172 526 175 548.8 177.5C571.7 180 594.3 182 617.2 175.5C640 169 663 154 685.8 147C708.7 140 731.3 141 754.2 140C777 139 800 136 822.8 134C845.7 132 868.3 131 891.2 141.5C914 152 937 174 948.5 185L960 196L960 110L948.5 106C937 102 914 94 891.2 91.5C868.3 89 845.7 92 822.8 94.5C800 97 777 99 754.2 92.5C731.3 86 708.7 71 685.8 72C663 73 640 90 617.2 98C594.3 106 571.7 105 548.8 108.5C526 112 503 120 480 116.5C457 113 434 98 411.2 90C388.3 82 365.7 81 342.8 83C320 85 297 90 274.2 87.5C251.3 85 228.7 75 205.8 72C183 69 160 73 137.2 77C114.3 81 91.7 85 68.8 91C46 97 23 105 11.5 109L0 113Z" fill="#6201f5"></path><path d="M0 205L11.5 205.5C23 206 46 207 68.8 201.5C91.7 196 114.3 184 137.2 173C160 162 183 152 205.8 155.5C228.7 159 251.3 176 274.2 185.5C297 195 320 197 342.8 200C365.7 203 388.3 207 411.2 205C434 203 457 195 480 193C503 191 526 195 548.8 200C571.7 205 594.3 211 617.2 205.5C640 200 663 183 685.8 175C708.7 167 731.3 168 754.2 166C777 164 800 159 822.8 157C845.7 155 868.3 156 891.2 166.5C914 177 937 197 948.5 207L960 217L960 194L948.5 183C937 172 914 150 891.2 139.5C868.3 129 845.7 130 822.8 132C800 134 777 137 754.2 138C731.3 139 708.7 138 685.8 145C663 152 640 167 617.2 173.5C594.3 180 571.7 178 548.8 175.5C526 173 503 170 480 169.5C457 169 434 171 411.2 173.5C388.3 176 365.7 179 342.8 177C320 175 297 168 274.2 155.5C251.3 143 228.7 125 205.8 122.5C183 120 160 133 137.2 146.5C114.3 160 91.7 174 68.8 182C46 190 23 192 11.5 193L0 194Z" fill="#701eff"></path><path d="M0 232L11.5 237.5C23 243 46 254 68.8 255C91.7 256 114.3 247 137.2 246.5C160 246 183 254 205.8 254C228.7 254 251.3 246 274.2 244C297 242 320 246 342.8 252C365.7 258 388.3 266 411.2 267.5C434 269 457 264 480 260C503 256 526 253 548.8 254C571.7 255 594.3 260 617.2 262C640 264 663 263 685.8 257.5C708.7 252 731.3 242 754.2 244.5C777 247 800 262 822.8 268.5C845.7 275 868.3 273 891.2 268.5C914 264 937 257 948.5 253.5L960 250L960 215L948.5 205C937 195 914 175 891.2 164.5C868.3 154 845.7 153 822.8 155C800 157 777 162 754.2 164C731.3 166 708.7 165 685.8 173C663 181 640 198 617.2 203.5C594.3 209 571.7 203 548.8 198C526 193 503 189 480 191C457 193 434 201 411.2 203C388.3 205 365.7 201 342.8 198C320 195 297 193 274.2 183.5C251.3 174 228.7 157 205.8 153.5C183 150 160 160 137.2 171C114.3 182 91.7 194 68.8 199.5C46 205 23 204 11.5 203.5L0 203Z" fill="#823cff"></path><path d="M0 256L11.5 260C23 264 46 272 68.8 271.5C91.7 271 114.3 262 137.2 262C160 262 183 271 205.8 274.5C228.7 278 251.3 276 274.2 273.5C297 271 320 268 342.8 270.5C365.7 273 388.3 281 411.2 281C434 281 457 273 480 271.5C503 270 526 275 548.8 277C571.7 279 594.3 278 617.2 279C640 280 663 283 685.8 281.5C708.7 280 731.3 274 754.2 273.5C777 273 800 278 822.8 279.5C845.7 281 868.3 279 891.2 276C914 273 937 269 948.5 267L960 265L960 248L948.5 251.5C937 255 914 262 891.2 266.5C868.3 271 845.7 273 822.8 266.5C800 260 777 245 754.2 242.5C731.3 240 708.7 250 685.8 255.5C663 261 640 262 617.2 260C594.3 258 571.7 253 548.8 252C526 251 503 254 480 258C457 262 434 267 411.2 265.5C388.3 264 365.7 256 342.8 250C320 244 297 240 274.2 242C251.3 244 228.7 252 205.8 252C183 252 160 244 137.2 244.5C114.3 245 91.7 254 68.8 253C46 252 23 241 11.5 235.5L0 230Z" fill="#9252ff"></path><path d="M0 301L11.5 301C23 301 46 301 68.8 301C91.7 301 114.3 301 137.2 301C160 301 183 301 205.8 301C228.7 301 251.3 301 274.2 301C297 301 320 301 342.8 301C365.7 301 388.3 301 411.2 301C434 301 457 301 480 301C503 301 526 301 548.8 301C571.7 301 594.3 301 617.2 301C640 301 663 301 685.8 301C708.7 301 731.3 301 754.2 301C777 301 800 301 822.8 301C845.7 301 868.3 301 891.2 301C914 301 937 301 948.5 301L960 301L960 263L948.5 265C937 267 914 271 891.2 274C868.3 277 845.7 279 822.8 277.5C800 276 777 271 754.2 271.5C731.3 272 708.7 278 685.8 279.5C663 281 640 278 617.2 277C594.3 276 571.7 277 548.8 275C526 273 503 268 480 269.5C457 271 434 279 411.2 279C388.3 279 365.7 271 342.8 268.5C320 266 297 269 274.2 271.5C251.3 274 228.7 276 205.8 272.5C183 269 160 260 137.2 260C114.3 260 91.7 269 68.8 269.5C46 270 23 262 11.5 258L0 254Z" fill="#a067ff"></path></svg>