<svg id="visual" viewBox="0 0 960 300" width="960" height="300" xmlns="http://www.w3.org/2000/svg" xmlns:xlink="http://www.w3.org/1999/xlink" version="1.1"><rect x="0" y="0" width="960" height="300" fill="#001220"></rect><path d="M0 146L22.8 146.5C45.7 147 91.3 148 137 151.3C182.7 154.7 228.3 160.3 274 164.7C319.7 169 365.3 172 411.2 170.3C457 168.7 503 162.3 548.8 157.3C594.7 152.3 640.3 148.7 686 151.8C731.7 155 777.3 165 823 167.7C868.7 170.3 914.3 165.7 937.2 163.3L960 161L960 0L937.2 0C914.3 0 868.7 0 823 0C777.3 0 731.7 0 686 0C640.3 0 594.7 0 548.8 0C503 0 457 0 411.2 0C365.3 0 319.7 0 274 0C228.3 0 182.7 0 137 0C91.3 0 45.7 0 22.8 0L0 0Z" fill="#fa7268"></path><path d="M0 139L22.8 134.3C45.7 129.7 91.3 120.3 137 115.8C182.7 111.3 228.3 111.7 274 116.3C319.7 121 365.3 130 411.2 131.2C457 132.3 503 125.7 548.8 123.8C594.7 122 640.3 125 686 129.8C731.7 134.7 777.3 141.3 823 142.8C868.7 144.3 914.3 140.7 937.2 138.8L960 137L960 0L937.2 0C914.3 0 868.7 0 823 0C777.3 0 731.7 0 686 0C640.3 0 594.7 0 548.8 0C503 0 457 0 411.2 0C365.3 0 319.7 0 274 0C228.3 0 182.7 0 137 0C91.3 0 45.7 0 22.8 0L0 0Z" fill="#ef5f67"></path><path d="M0 84L22.8 84.3C45.7 84.7 91.3 85.3 137 90.7C182.7 96 228.3 106 274 107.5C319.7 109 365.3 102 411.2 97.8C457 93.7 503 92.3 548.8 93.5C594.7 94.7 640.3 98.3 686 98.3C731.7 98.3 777.3 94.7 823 91.7C868.7 88.7 914.3 86.3 937.2 85.2L960 84L960 0L937.2 0C914.3 0 868.7 0 823 0C777.3 0 731.7 0 686 0C640.3 0 594.7 0 548.8 0C503 0 457 0 411.2 0C365.3 0 319.7 0 274 0C228.3 0 182.7 0 137 0C91.3 0 45.7 0 22.8 0L0 0Z" fill="#e34c67"></path><path d="M0 55L22.8 56.3C45.7 57.7 91.3 60.3 137 60.7C182.7 61 228.3 59 274 58.8C319.7 58.7 365.3 60.3 411.2 62.3C457 64.3 503 66.7 548.8 65.7C594.7 64.7 640.3 60.3 686 60.5C731.7 60.7 777.3 65.3 823 68.2C868.7 71 914.3 72 937.2 72.5L960 73L960 0L937.2 0C914.3 0 868.7 0 823 0C777.3 0 731.7 0 686 0C640.3 0 594.7 0 548.8 0C503 0 457 0 411.2 0C365.3 0 319.7 0 274 0C228.3 0 182.7 0 137 0C91.3 0 45.7 0 22.8 0L0 0Z" fill="#d53867"></path><path d="M0 46L22.8 45.8C45.7 45.7 91.3 45.3 137 44.5C182.7 43.7 228.3 42.3 274 40.8C319.7 39.3 365.3 37.7 411.2 36.3C457 35 503 34 548.8 34.2C594.7 34.3 640.3 35.7 686 35.2C731.7 34.7 777.3 32.3 823 32.8C868.7 33.3 914.3 36.7 937.2 38.3L960 40L960 0L937.2 0C914.3 0 868.7 0 823 0C777.3 0 731.7 0 686 0C640.3 0 594.7 0 548.8 0C503 0 457 0 411.2 0C365.3 0 319.7 0 274 0C228.3 0 182.7 0 137 0C91.3 0 45.7 0 22.8 0L0 0Z" fill="#c62368"></path></svg>