<svg id="visual" viewBox="0 0 960 300" width="960" height="300" xmlns="http://www.w3.org/2000/svg" xmlns:xlink="http://www.w3.org/1999/xlink" version="1.1"><path d="M0 25L14.5 29.5C29 34 58 43 87.2 45C116.3 47 145.7 42 174.8 45C204 48 233 59 262 62.5C291 66 320 62 349 63.5C378 65 407 72 436.2 68.5C465.3 65 494.7 51 523.8 44C553 37 582 37 611 37C640 37 669 37 698 34C727 31 756 25 785.2 26.5C814.3 28 843.7 37 872.8 38C902 39 931 32 945.5 28.5L960 25L960 0L945.5 0C931 0 902 0 872.8 0C843.7 0 814.3 0 785.2 0C756 0 727 0 698 0C669 0 640 0 611 0C582 0 553 0 523.8 0C494.7 0 465.3 0 436.2 0C407 0 378 0 349 0C320 0 291 0 262 0C233 0 204 0 174.8 0C145.7 0 116.3 0 87.2 0C58 0 29 0 14.5 0L0 0Z" fill="#a868ff"></path><path d="M0 55L14.5 59C29 63 58 71 87.2 71C116.3 71 145.7 63 174.8 66C204 69 233 83 262 89.5C291 96 320 95 349 97.5C378 100 407 106 436.2 102C465.3 98 494.7 84 523.8 74C553 64 582 58 611 55.5C640 53 669 54 698 54.5C727 55 756 55 785.2 58C814.3 61 843.7 67 872.8 64C902 61 931 49 945.5 43L960 37L960 23L945.5 26.5C931 30 902 37 872.8 36C843.7 35 814.3 26 785.2 24.5C756 23 727 29 698 32C669 35 640 35 611 35C582 35 553 35 523.8 42C494.7 49 465.3 63 436.2 66.5C407 70 378 63 349 61.5C320 60 291 64 262 60.5C233 57 204 46 174.8 43C145.7 40 116.3 45 87.2 43C58 41 29 32 14.5 27.5L0 23Z" fill="#9950ff"></path><path d="M0 97L14.5 101.5C29 106 58 115 87.2 114C116.3 113 145.7 102 174.8 99.5C204 97 233 103 262 105.5C291 108 320 107 349 110C378 113 407 120 436.2 121.5C465.3 123 494.7 119 523.8 113.5C553 108 582 101 611 96.5C640 92 669 90 698 87C727 84 756 80 785.2 80C814.3 80 843.7 84 872.8 82C902 80 931 72 945.5 68L960 64L960 35L945.5 41C931 47 902 59 872.8 62C843.7 65 814.3 59 785.2 56C756 53 727 53 698 52.5C669 52 640 51 611 53.5C582 56 553 62 523.8 72C494.7 82 465.3 96 436.2 100C407 104 378 98 349 95.5C320 93 291 94 262 87.5C233 81 204 67 174.8 64C145.7 61 116.3 69 87.2 69C58 69 29 61 14.5 57L0 53Z" fill="#8834ff"></path><path d="M0 145L14.5 151.5C29 158 58 171 87.2 173C116.3 175 145.7 166 174.8 160.5C204 155 233 153 262 154.5C291 156 320 161 349 173.5C378 186 407 206 436.2 210C465.3 214 494.7 202 523.8 187.5C553 173 582 156 611 147C640 138 669 137 698 142C727 147 756 158 785.2 155C814.3 152 843.7 135 872.8 128C902 121 931 124 945.5 125.5L960 127L960 62L945.5 66C931 70 902 78 872.8 80C843.7 82 814.3 78 785.2 78C756 78 727 82 698 85C669 88 640 90 611 94.5C582 99 553 106 523.8 111.5C494.7 117 465.3 121 436.2 119.5C407 118 378 111 349 108C320 105 291 106 262 103.5C233 101 204 95 174.8 97.5C145.7 100 116.3 111 87.2 112C58 113 29 104 14.5 99.5L0 95Z" fill="#7400ff"></path><path d="M0 160L14.5 171.5C29 183 58 206 87.2 210.5C116.3 215 145.7 201 174.8 193C204 185 233 183 262 183C291 183 320 185 349 196C378 207 407 227 436.2 233C465.3 239 494.7 231 523.8 216C553 201 582 179 611 170.5C640 162 669 167 698 176.5C727 186 756 200 785.2 198.5C814.3 197 843.7 180 872.8 175.5C902 171 931 179 945.5 183L960 187L960 125L945.5 123.5C931 122 902 119 872.8 126C843.7 133 814.3 150 785.2 153C756 156 727 145 698 140C669 135 640 136 611 145C582 154 553 171 523.8 185.5C494.7 200 465.3 212 436.2 208C407 204 378 184 349 171.5C320 159 291 154 262 152.5C233 151 204 153 174.8 158.5C145.7 164 116.3 173 87.2 171C58 169 29 156 14.5 149.5L0 143Z" fill="#6a00e8"></path><path d="M0 286L14.5 283.5C29 281 58 276 87.2 274.5C116.3 273 145.7 275 174.8 277.5C204 280 233 283 262 282C291 281 320 276 349 275.5C378 275 407 279 436.2 281.5C465.3 284 494.7 285 523.8 282.5C553 280 582 274 611 271.5C640 269 669 270 698 274C727 278 756 285 785.2 287C814.3 289 843.7 286 872.8 285C902 284 931 285 945.5 285.5L960 286L960 185L945.5 181C931 177 902 169 872.8 173.5C843.7 178 814.3 195 785.2 196.5C756 198 727 184 698 174.5C669 165 640 160 611 168.5C582 177 553 199 523.8 214C494.7 229 465.3 237 436.2 231C407 225 378 205 349 194C320 183 291 181 262 181C233 181 204 183 174.8 191C145.7 199 116.3 213 87.2 208.5C58 204 29 181 14.5 169.5L0 158Z" fill="#6001d1"></path><path d="M0 301L14.5 301C29 301 58 301 87.2 301C116.3 301 145.7 301 174.8 301C204 301 233 301 262 301C291 301 320 301 349 301C378 301 407 301 436.2 301C465.3 301 494.7 301 523.8 301C553 301 582 301 611 301C640 301 669 301 698 301C727 301 756 301 785.2 301C814.3 301 843.7 301 872.8 301C902 301 931 301 945.5 301L960 301L960 284L945.5 283.5C931 283 902 282 872.8 283C843.7 284 814.3 287 785.2 285C756 283 727 276 698 272C669 268 640 267 611 269.5C582 272 553 278 523.8 280.5C494.7 283 465.3 282 436.2 279.5C407 277 378 273 349 273.5C320 274 291 279 262 280C233 281 204 278 174.8 275.5C145.7 273 116.3 271 87.2 272.5C58 274 29 279 14.5 281.5L0 284Z" fill="#5601ba"></path></svg>